<?xml version="1.0" standalone="no"?>
<!DOCTYPE svg PUBLIC "-//W3C//DTD SVG 20010904//EN"
 "http://www.w3.org/TR/2001/REC-SVG-20010904/DTD/svg10.dtd">
<svg version="1.0" xmlns="http://www.w3.org/2000/svg"
 width="578.000000pt" height="578.000000pt" viewBox="0 0 578.000000 578.000000"
 preserveAspectRatio="xMidYMid meet">
<metadata>
Created by potrace 1.14, written by Peter Selinger 2001-2017
</metadata>
<g transform="translate(0.000000,578.000000) scale(0.100000,-0.100000)"
fill="#000000" stroke="none">
<path d="M2863 5425 c-99 -30 -169 -91 -221 -188 -24 -47 -27 -62 -27 -152 0
-95 2 -103 34 -163 62 -114 165 -181 293 -190 l68 -5 0 -83 0 -83 -37 -7
c-266 -46 -488 -133 -702 -274 l-94 -62 -65 66 c-62 61 -65 66 -54 91 7 14 12
48 12 76 0 131 -123 223 -251 189 -37 -10 -69 -37 -211 -178 -186 -184 -206
-215 -194 -299 8 -58 30 -97 79 -136 30 -25 49 -32 97 -35 32 -2 74 1 92 7 32
11 34 10 96 -52 l64 -64 -54 -79 -55 -79 -153 -3 c-142 -2 -156 -4 -177 -24
-31 -29 -30 -72 2 -103 23 -24 31 -25 135 -25 60 0 110 -2 110 -4 0 -2 -11
-28 -24 -57 -13 -30 -34 -85 -46 -122 -18 -54 -26 -67 -39 -61 -191 82 -342
83 -508 3 -160 -77 -266 -219 -301 -402 l-16 -87 -121 0 c-114 0 -123 -1 -143
-23 -29 -31 -28 -72 3 -102 23 -24 29 -25 153 -25 l129 0 22 -56 c60 -157 197
-284 361 -335 96 -30 235 -28 326 4 38 13 77 27 87 31 16 8 17 -4 17 -163 l0
-171 -259 0 c-258 0 -260 0 -287 -23 -35 -31 -38 -82 -5 -109 21 -16 46 -18
287 -18 l264 0 0 -145 0 -145 -138 0 c-132 0 -140 -1 -160 -23 -29 -31 -28
-72 3 -102 23 -24 29 -25 158 -25 l135 0 7 -57 c8 -69 31 -117 77 -160 66 -64
56 -63 608 -63 275 0 500 -1 500 -2 0 -2 -10 -28 -22 -58 -18 -45 -22 -76 -22
-170 -1 -63 2 -127 7 -142 l7 -28 -245 0 -246 0 -24 -25 c-32 -31 -32 -69 0
-100 l24 -25 275 0 275 0 78 -78 c86 -86 165 -131 274 -157 291 -68 589 115
664 410 26 102 13 260 -29 358 -8 16 20 17 501 17 l509 0 51 25 c28 15 64 42
78 62 54 69 55 85 55 626 0 471 1 499 18 492 151 -64 292 -76 418 -35 130 41
264 151 326 265 199 371 -72 824 -493 825 -65 0 -190 -30 -247 -59 l-39 -20
-27 82 c-38 112 -123 283 -197 396 l-61 93 64 65 c60 60 66 63 92 53 64 -24
157 -7 210 39 57 51 76 163 38 236 -11 22 -91 110 -179 196 -158 155 -193 179
-259 179 -65 0 -149 -52 -178 -109 -24 -46 -28 -104 -12 -152 l16 -44 -64 -64
-64 -63 -93 62 c-205 135 -451 232 -701 275 l-38 6 0 83 0 83 70 5 c220 16
375 234 316 444 -33 116 -117 205 -231 245 -50 17 -84 19 -392 18 -250 0 -349
-4 -380 -14z m303 -337 l-6 -203 -55 -3 -55 -3 0 206 0 205 61 0 61 0 -6 -202z
m272 0 l-3 -203 -57 -3 -58 -3 0 206 0 205 60 0 60 0 -2 -202z m-543 0 c-4
-101 -9 -185 -11 -187 -2 -2 -20 9 -40 24 -102 78 -111 211 -19 302 76 76 78
71 70 -139z m759 152 c70 -62 89 -170 44 -252 -21 -38 -77 -88 -99 -88 -5 0
-9 83 -9 185 0 207 1 210 64 155z m-334 -584 l0 -73 -77 -6 c-43 -2 -81 -3
-85 0 -10 5 -11 137 -1 146 3 4 42 7 85 7 l78 0 0 -74z m-1420 -174 c17 -14
21 -25 17 -44 -8 -28 -286 -298 -309 -298 -20 0 -38 21 -38 45 1 21 276 315
296 315 7 0 22 -8 34 -18z m2877 -134 c141 -141 159 -168 131 -196 -28 -28
-55 -10 -195 130 -141 141 -159 168 -131 196 28 28 55 10 195 -130z m-1275 -3
c305 -53 579 -192 825 -417 43 -40 75 -68 71 -64 -4 5 -2 16 5 25 11 14 10 15
-8 1 -19 -14 -19 -14 -5 4 14 18 18 15 73 -45 121 -131 234 -331 303 -534 46
-138 73 -170 142 -170 32 0 64 9 98 27 217 114 452 54 568 -145 81 -137 61
-331 -46 -453 -33 -37 -104 -94 -118 -94 -20 0 -15 42 8 76 110 162 98 402
-27 537 l-42 45 -132 -91 c-73 -51 -193 -132 -266 -182 -73 -49 -139 -95 -146
-102 -6 -6 -15 -47 -18 -90 -13 -166 -64 -347 -148 -522 -207 -436 -608 -749
-1087 -852 -125 -26 -383 -36 -515 -20 -53 7 -144 25 -204 41 l-108 28 -25
-20 c-14 -11 -25 -25 -25 -31 0 -9 -119 -13 -458 -15 l-458 -2 -24 24 -25 25
1 478 2 478 17 -100 c10 -55 18 -102 19 -104 0 -3 8 4 17 15 8 10 13 12 9 4
-4 -8 3 -4 15 10 12 14 19 18 15 10 -5 -12 -4 -12 7 1 7 9 18 14 25 12 6 -2
-4 33 -23 79 -79 185 -117 382 -117 603 -1 172 14 282 58 437 125 439 458 812
885 992 150 64 278 95 490 120 63 7 283 -4 372 -19z m-1503 -169 c29 -30 52
-58 50 -63 -2 -4 -28 -30 -57 -57 l-53 -50 -54 54 -54 53 50 59 c28 32 54 58
58 58 4 0 31 -24 60 -54z m2604 -118 l-57 -58 -56 57 -56 58 55 58 55 57 58
-57 58 -57 -57 -58z m-3439 -906 c-38 -38 -81 -91 -96 -119 -95 -174 -69 -380
67 -531 34 -37 42 -52 30 -52 -33 0 -121 52 -172 102 -186 183 -142 505 86
627 54 28 139 53 150 44 3 -2 -27 -34 -65 -71z m3626 -1558 c0 -161 -4 -263
-11 -275 -20 -38 -52 -41 -332 -34 -224 6 -266 10 -255 21 8 8 92 23 223 39
116 14 220 28 232 30 41 9 51 43 73 230 28 245 27 240 50 242 19 2 20 -5 20
-253z m-1812 -891 c93 -63 180 -87 302 -81 90 4 106 8 185 46 48 23 98 42 112
42 l24 0 -23 -41 c-70 -125 -242 -204 -391 -179 -146 23 -243 101 -314 252
-10 20 50 -2 105 -39z"/>
<path d="M3125 4274 c-364 -37 -657 -175 -911 -428 -289 -290 -428 -623 -428
-1031 0 -408 139 -741 428 -1031 179 -179 360 -290 586 -362 167 -53 256 -66
450 -66 189 1 293 17 456 70 332 108 645 367 816 676 317 574 218 1279 -247
1743 -219 220 -483 358 -785 411 -87 15 -293 25 -365 18z m348 -170 c257 -43
519 -182 709 -377 339 -348 456 -861 303 -1324 -142 -428 -482 -742 -930 -859
-137 -36 -375 -45 -526 -19 -444 74 -827 378 -995 788 -238 584 -37 1245 485
1592 285 189 605 256 954 199z"/>
<path d="M3196 4019 c-25 -20 -26 -25 -26 -118 0 -106 11 -134 55 -145 27 -7
62 7 82 33 8 10 12 52 13 109 0 86 -2 95 -25 117 -30 30 -64 32 -99 4z"/>
<path d="M2618 3863 c-31 -36 -30 -58 8 -129 20 -38 45 -79 57 -91 43 -47 127
-14 127 51 0 28 -33 93 -77 154 -20 26 -31 32 -62 32 -24 0 -44 -7 -53 -17z"/>
<path d="M3763 3858 c-36 -41 -83 -135 -83 -167 0 -56 58 -89 110 -61 25 13
100 151 100 184 0 60 -85 90 -127 44z"/>
<path d="M3196 3669 l-26 -20 0 -295 0 -294 -26 -12 c-24 -11 -33 -5 -229 193
-163 162 -210 205 -234 207 -39 4 -71 -27 -71 -70 0 -29 23 -56 205 -238 l205
-205 -15 -44 c-20 -60 -19 -100 5 -165 37 -97 126 -158 236 -158 135 -1 232
93 243 235 l6 70 170 98 c93 54 175 106 182 115 19 26 16 71 -7 94 -37 37 -73
26 -254 -79 l-170 -99 -48 26 -48 27 0 293 0 293 -25 24 c-30 30 -64 32 -99 4z
m115 -788 c21 -22 29 -39 29 -66 0 -83 -105 -127 -163 -69 -42 42 -42 97 0
139 37 36 95 35 134 -4z"/>
<path d="M2195 3440 c-21 -24 -24 -72 -5 -95 25 -30 146 -95 176 -95 36 0 74
36 74 69 0 39 -18 59 -89 101 -79 46 -127 52 -156 20z"/>
<path d="M4145 3424 c-84 -50 -95 -62 -95 -101 0 -41 30 -73 69 -73 34 0 167
73 181 100 28 52 -5 110 -62 110 -19 -1 -58 -16 -93 -36z"/>
<path d="M2045 2865 c-14 -13 -25 -36 -25 -50 0 -14 11 -37 25 -50 22 -23 32
-25 118 -25 109 0 137 15 137 75 0 61 -25 75 -135 75 -88 0 -98 -2 -120 -25z"/>
<path d="M4205 2865 c-14 -13 -25 -36 -25 -50 0 -14 11 -37 25 -50 22 -23 32
-25 118 -25 114 0 141 14 141 75 0 61 -27 75 -141 75 -86 0 -96 -2 -118 -25z"/>
<path d="M4104 2382 c-51 -8 -75 -83 -39 -122 29 -32 141 -90 174 -90 41 0 71
31 71 73 0 38 -19 59 -92 100 -59 34 -88 44 -114 39z"/>
<path d="M2269 2340 c-79 -47 -92 -62 -92 -100 0 -41 29 -70 69 -70 37 0 169
72 184 100 27 50 -9 110 -66 110 -16 0 -58 -18 -95 -40z"/>
<path d="M2683 1988 c-41 -46 -95 -156 -88 -180 13 -40 36 -58 75 -58 23 0 43
7 52 18 33 38 88 145 88 171 0 62 -85 94 -127 49z"/>
<path d="M3698 1993 c-32 -37 -31 -61 7 -131 50 -91 71 -112 112 -112 72 0 93
66 46 148 -54 95 -71 112 -112 112 -24 0 -44 -7 -53 -17z"/>
<path d="M3197 1860 c-26 -21 -27 -24 -27 -125 0 -100 1 -104 26 -124 35 -28
69 -26 99 4 23 22 25 32 25 118 0 76 -4 99 -17 116 -27 32 -73 37 -106 11z"/>
<path d="M1092 3697 c-29 -31 -28 -72 3 -102 20 -21 34 -25 80 -25 46 0 60 4
80 25 31 30 33 77 5 105 -31 31 -138 29 -168 -3z"/>
<path d="M22 2817 c-29 -31 -28 -72 3 -102 20 -21 34 -25 85 -25 51 0 65 4 85
25 32 31 33 74 2 103 -19 18 -35 22 -88 22 -56 0 -69 -4 -87 -23z"/>
<path d="M662 1993 c-15 -6 -42 -56 -42 -78 0 -9 11 -27 25 -40 21 -22 33 -25
93 -25 59 0 72 3 90 23 29 31 28 72 -3 102 -21 22 -33 25 -87 24 -35 0 -69 -3
-76 -6z"/>
<path d="M940 1540 c-12 -12 -20 -33 -20 -54 0 -47 37 -76 97 -76 80 0 123 78
70 128 -32 30 -118 31 -147 2z"/>
<path d="M1882 707 c-29 -31 -29 -77 1 -105 31 -30 104 -30 141 -1 34 27 36
77 3 107 -34 32 -115 31 -145 -1z"/>
</g>
</svg>
