<?xml version="1.0" encoding="UTF-8"?>
<!DOCTYPE svg PUBLIC "-//W3C//DTD SVG 1.1//EN" "http://www.w3.org/Graphics/SVG/1.1/DTD/svg11.dtd">
<!-- Creator: CorelDRAW 2020 (64-Bit) -->
<svg xmlns="http://www.w3.org/2000/svg" xml:space="preserve" width="76.3875mm" height="67.5224mm" version="1.1" style="shape-rendering:geometricPrecision; text-rendering:geometricPrecision; image-rendering:optimizeQuality; fill-rule:evenodd; clip-rule:evenodd"
viewBox="0 0 7624.51 6739.65"
 xmlns:xlink="http://www.w3.org/1999/xlink"
 xmlns:xodm="http://www.corel.com/coreldraw/odm/2003">
 <defs>
  <style type="text/css">
   <![CDATA[
    .fil10 {fill:#FEFEFE}
    .fil4 {fill:#82BCFF}
    .fil15 {fill:#A8F6FF}
    .fil1 {fill:#BFC3E3}
    .fil7 {fill:#DDC2FF}
    .fil6 {fill:#FFE0E7}
    .fil5 {fill:white}
    .fil3 {fill:white}
    .fil2 {fill:#2C3679;fill-rule:nonzero}
    .fil14 {fill:#2C3679;fill-rule:nonzero;fill-opacity:0.101961}
    .fil13 {fill:#2C3679;fill-rule:nonzero;fill-opacity:0.149020}
    .fil12 {fill:#2C3679;fill-rule:nonzero;fill-opacity:0.301961}
    .fil11 {fill:#2C3679;fill-rule:nonzero;fill-opacity:0.549020}
    .fil9 {fill:url(#id20)}
    .fil0 {fill:url(#id21)}
    .fil8 {fill:url(#id22)}
   ]]>
  </style>
    <mask id="id0">
  <linearGradient id="id1" gradientUnits="userSpaceOnUse" x1="4277.24" y1="6550.55" x2="4277.24" y2="6063.48">
   <stop offset="0" style="stop-opacity:1; stop-color:white"/>
   <stop offset="1" style="stop-opacity:0; stop-color:white"/>
  </linearGradient>
     <rect style="fill:url(#id1)" x="3652.97" y="5809.75" width="1270.58" height="829.56"/>
    </mask>
    <mask id="id2">
  <linearGradient id="id3" gradientUnits="userSpaceOnUse" x1="1157.52" y1="3450.32" x2="1644.59" y2="3450.32">
   <stop offset="0" style="stop-opacity:1; stop-color:white"/>
   <stop offset="1" style="stop-opacity:0; stop-color:white"/>
  </linearGradient>
     <rect style="fill:url(#id3)" x="1068.76" y="2826.04" width="829.56" height="1270.57"/>
    </mask>
    <mask id="id4">
  <linearGradient id="id5" gradientUnits="userSpaceOnUse" x1="7419" y1="3450.32" x2="6931.93" y2="3450.32">
   <stop offset="0" style="stop-opacity:1; stop-color:white"/>
   <stop offset="1" style="stop-opacity:0; stop-color:white"/>
  </linearGradient>
     <rect style="fill:url(#id5)" x="6678.2" y="2826.04" width="829.55" height="1270.57"/>
    </mask>
    <mask id="id6">
  <linearGradient id="id7" gradientUnits="userSpaceOnUse" x1="5681.25" y1="5046.95" x2="4433.28" y2="3171.86">
   <stop offset="0" style="stop-opacity:1; stop-color:white"/>
   <stop offset="1" style="stop-opacity:0; stop-color:white"/>
  </linearGradient>
     <rect style="fill:url(#id7)" x="2264.68" y="1971.95" width="4051.56" height="3527.51"/>
    </mask>
    <mask id="id8">
  <linearGradient id="id9" gradientUnits="userSpaceOnUse" x1="4750.91" y1="5444.41" x2="3983.85" y2="3285.63">
   <stop offset="0" style="stop-opacity:1; stop-color:white"/>
   <stop offset="1" style="stop-opacity:0; stop-color:white"/>
  </linearGradient>
     <rect style="fill:url(#id9)" x="2951.07" y="2392.28" width="3165.49" height="2907.48"/>
    </mask>
    <mask id="id10">
  <linearGradient id="id11" gradientUnits="userSpaceOnUse" x1="3387.82" y1="1488.95" x2="4096.46" y2="2749.47">
   <stop offset="0" style="stop-opacity:1; stop-color:white"/>
   <stop offset="1" style="stop-opacity:0; stop-color:white"/>
  </linearGradient>
     <rect style="fill:url(#id11)" x="2450.32" y="1633.54" width="3145.5" height="2887.52"/>
    </mask>
    <mask id="id12">
  <linearGradient id="id13" gradientUnits="userSpaceOnUse" x1="3620.13" y1="2006.3" x2="4617.25" y2="3850.05">
   <stop offset="0" style="stop-opacity:1; stop-color:white"/>
   <stop offset="1" style="stop-opacity:0; stop-color:white"/>
  </linearGradient>
     <rect style="fill:url(#id13)" x="2440.34" y="1623.56" width="3165.47" height="2907.48"/>
    </mask>
    <mask id="id14">
  <linearGradient id="id15" gradientUnits="userSpaceOnUse" x1="4277.24" y1="6550.55" x2="4277.24" y2="6063.48">
   <stop offset="0" style="stop-opacity:1; stop-color:white"/>
   <stop offset="1" style="stop-opacity:0; stop-color:white"/>
  </linearGradient>
     <rect style="fill:url(#id15)" x="3652.97" y="5809.75" width="1270.58" height="829.56"/>
    </mask>
    <mask id="id16">
  <linearGradient id="id17" gradientUnits="userSpaceOnUse" x1="2283.29" y1="5620.45" x2="3105.22" y2="4660.03">
   <stop offset="0" style="stop-opacity:1; stop-color:white"/>
   <stop offset="1" style="stop-opacity:0; stop-color:white"/>
  </linearGradient>
     <rect style="fill:url(#id17)" x="2252.07" y="4057.51" width="1359.58" height="1429.76"/>
    </mask>
    <mask id="id18">
  <linearGradient id="id19" gradientUnits="userSpaceOnUse" x1="6292.21" y1="5620.45" x2="5470.28" y2="4660.03">
   <stop offset="0" style="stop-opacity:1; stop-color:white"/>
   <stop offset="1" style="stop-opacity:0; stop-color:white"/>
  </linearGradient>
     <rect style="fill:url(#id19)" x="4963.85" y="4057.51" width="1359.58" height="1429.76"/>
    </mask>
  <linearGradient id="id20" gradientUnits="userSpaceOnUse" x1="3581.42" y1="2413.33" x2="4749.02" y2="4390.33">
   <stop offset="0" style="stop-opacity:1; stop-color:#85BCFF"/>
   <stop offset="1" style="stop-opacity:1; stop-color:white"/>
  </linearGradient>
  <linearGradient id="id21" gradientUnits="userSpaceOnUse" x1="6327.24" y1="6455.38" x2="2530.03" y2="898.84">
   <stop offset="0" style="stop-opacity:1; stop-color:#270082"/>
   <stop offset="0.0705882" style="stop-opacity:1; stop-color:#5823B4"/>
   <stop offset="0.180392" style="stop-opacity:1; stop-color:#8947E6"/>
   <stop offset="0.282353" style="stop-opacity:1; stop-color:#6E85DA"/>
   <stop offset="0.431373" style="stop-opacity:1; stop-color:#52C3CD"/>
   <stop offset="0.572549" style="stop-opacity:1; stop-color:#A796B0"/>
   <stop offset="0.670588" style="stop-opacity:1; stop-color:#FD6993"/>
   <stop offset="1" style="stop-opacity:1; stop-color:#FF859E"/>
  </linearGradient>
  <linearGradient id="id22" gradientUnits="userSpaceOnUse" xlink:href="#id20" x1="4801.84" y1="4579.03" x2="3412.9" y2="2099.44">
  </linearGradient>
 </defs>
 <g id="Layer_x0020_1">
  <metadata id="CorelCorpID_0Corel-Layer"/>
  <g id="_1463096555664">
   <path class="fil0" d="M2005.83 2889.54c-93.56,-54.25 -202.26,-85.35 -318.18,-85.35 -350.85,0 -635.29,284.45 -635.29,635.3 0,350.82 284.44,635.27 635.29,635.27 115.91,0 224.62,-31.06 318.18,-85.33 30.7,-17.81 65.9,-17.85 96.63,-0.13 30.74,17.71 48.35,48.18 48.35,83.65l0 1514.61 1470.56 0c34.29,0 63.71,16.33 81.88,45.38 18.17,29.04 19.95,62.65 4.95,93.45 -40.8,83.86 -63.73,178.09 -63.73,277.62 0,350.84 284.45,635.29 635.29,635.29 350.83,0 635.27,-284.45 635.27,-635.29 0,-99.53 -22.9,-193.76 -63.73,-277.62 -14.99,-30.79 -13.2,-64.41 4.95,-93.45 18.19,-29.05 47.62,-45.38 81.88,-45.38l1487.57 0 0 -1514.61c0,-35.47 17.62,-65.95 48.35,-83.65 30.74,-17.72 65.94,-17.68 96.63,0.13 93.57,54.27 202.27,85.33 318.19,85.33 350.84,0 635.29,-284.45 635.29,-635.27 0,-350.85 -284.45,-635.3 -635.29,-635.3 -115.91,0 -224.62,31.1 -318.19,85.35 -30.67,17.81 -122.91,71.53 -151.03,-20.15 -85.52,-309.1 -233.87,-587.68 -428.99,-823.47l301.15 -301.16 25.86 25.87c63.41,63.4 167.1,63.38 230.48,0 63.37,-63.37 63.39,-167.06 -0.01,-230.47l-348.26 -348.25c-63.38,-63.4 -167.09,-63.39 -230.46,0 -63.37,63.37 -63.41,167.06 0,230.46l25.86 25.87 0.02 0 -301.25 301.24c-336.79,-278.41 -754.69,-457.03 -1205.99,-499.6 -66.48,-6.3 -352.83,-6.28 -419.32,0.02 -451.18,42.55 -869.11,221.13 -1205.99,499.6l-301.23 -301.23 25.86 -25.86c63.41,-63.4 63.39,-167.09 0,-230.48 -63.36,-63.37 -167.05,-63.39 -230.46,0.02l-348.25 348.25c-63.41,63.39 -63.39,167.1 0,230.46 63.37,63.37 167.06,63.41 230.46,0l25.86 -25.88 301.16 301.16c-192.08,232.15 -338.87,505.82 -425,809.38 -27.61,77.31 -104.66,52.03 -135.35,34.23z"/>
   <path class="fil1" d="M4160.42 823.96l0 314.78c36.64,6.07 73.72,9.27 110.91,9.63l7.11 0.08 7.12 -0.08c37.18,-0.36 74.25,-3.56 110.86,-9.63l0 -314.78 -236 0z"/>
   <path class="fil2" d="M3968.42 823.94c0,-55.41 44.94,-100.34 100.34,-100.34 55.41,0 100.34,44.94 100.34,100.34l0 388.62c0,55.41 -44.94,100.34 -100.34,100.34 -55.41,0 -100.34,-44.94 -100.34,-100.34l0 -388.62z"/>
   <path class="fil2" d="M4387.73 823.94c0,-55.41 44.95,-100.34 100.34,-100.34 55.41,0 100.35,44.94 100.35,100.34l0 388.62c0,55.41 -44.95,100.34 -100.35,100.34 -55.4,0 -100.34,-44.94 -100.34,-100.34l0 -388.62z"/>
   <path class="fil3" d="M4278.44 1423.86c-1125.46,0 -2037.8,912.34 -2037.8,2037.79 0,139.68 14.05,276.06 40.83,407.82 19.07,93.93 44.6,185.5 76.11,274.22 204.24,575.17 659.49,1031.46 1233.97,1237.11 71.05,25.42 143.88,47 218.3,64.52 150.47,35.4 307.34,54.14 468.58,54.14 162.64,0 320.83,-19.05 472.47,-55.05 73.06,-17.35 144.63,-38.62 214.42,-63.61 593.91,-212.58 1060.37,-693.06 1253.82,-1295.79 18.56,-57.85 34.61,-116.81 48.01,-176.77 32.14,-143.72 49.09,-293.16 49.09,-446.59 0,-1125.46 -912.35,-2037.79 -2037.8,-2037.79z"/>
   <path class="fil1" d="M6034.24 1357.56l90.68 90.68 -64.81 64.81 166.9 166.9 64.81 -64.81 90.68 90.67c27.62,27.63 73.22,27.63 100.85,0 27.61,-27.63 27.59,-73.22 -0.02,-100.83l-348.25 -348.26c-27.63,-27.61 -73.21,-27.62 -100.84,0 -27.61,27.61 -27.61,73.21 0,100.84z"/>
   <path class="fil1" d="M2329.86 1679.97l166.88 -166.88 -64.81 -64.82 90.67 -90.67c27.63,-27.63 27.63,-73.23 0,-100.86 -27.63,-27.61 -73.22,-27.59 -100.83,0.02l-348.26 348.25c-27.61,27.63 -27.63,73.21 0,100.84 27.61,27.59 73.21,27.65 100.82,0.02l90.68 -90.75 64.85 64.85z"/>
   <path class="fil4" style="mask:url(#id0)" d="M3683.23 5809.75c-19.64,61.25 -30.26,126.51 -30.26,194.27 0,350.84 284.45,635.29 635.29,635.29 350.83,0 635.28,-284.45 635.28,-635.29 0,-67.26 -10.45,-132.07 -29.83,-192.92 -104.81,733.02 -1107.34,731.33 -1210.48,-1.35z"/>
   <path class="fil5" d="M6060.11 1513.05l-292.75 292.76c58.59,52.39 114.47,107.96 167.36,166.43l292.29 -292.29 -166.9 -166.9z"/>
   <path class="fil3" d="M2496.74 1513.09l-166.88 166.88 296.37 296.38c52.73,-58.63 108.47,-114.31 166.94,-166.83l-296.43 -296.43z"/>
   <path class="fil6" style="mask:url(#id2)" d="M1898.32 2856.3c-61.25,-19.64 -126.51,-30.26 -194.27,-30.26 -350.84,0 -635.29,284.45 -635.29,635.29 0,350.83 284.45,635.27 635.29,635.27 67.26,0 132.07,-10.44 192.92,-29.82 -763.3,-109.15 -761.47,-1103.12 1.35,-1210.48z"/>
   <path class="fil7" style="mask:url(#id4)" d="M6678.2 2856.3c61.25,-19.64 126.51,-30.26 194.26,-30.26 350.85,0 635.29,284.45 635.29,635.29 0,350.83 -284.44,635.27 -635.29,635.27 -67.25,0 -132.06,-10.44 -192.91,-29.82 763.3,-109.15 761.46,-1103.12 -1.35,-1210.48z"/>
   <path class="fil3" d="M4636.61 103.14l0 730.98c213.94,-22.56 380.94,-178.3 380.94,-365.5 0,-187.2 -167,-342.94 -380.94,-365.49z"/>
   <path class="fil3" d="M3920.24 103.14l0 730.98c17.54,1.85 35.39,2.79 53.51,2.79l95.01 0 91.66 0 118 0 0 -10.98 0 -725.59 -304.67 0c-18.12,0 -35.97,0.95 -53.51,2.79z"/>
   <path class="fil3" d="M4278.42 100.34l0 725.59 0 10.98 118 0 91.66 0 95 0c18.11,0 35.97,-0.95 53.53,-2.79l0 -730.98c-17.56,-1.85 -35.42,-2.79 -53.53,-2.79l-304.66 0z"/>
   <path class="fil3" d="M3920.24 834.12l0 -730.98c-213.97,22.54 -380.97,178.29 -380.97,365.49 0,187.2 167,342.96 380.97,365.5z"/>
   <path class="fil1" d="M5007.37 389.54c6.66,25.49 10.18,51.95 10.18,79.08l0 0c0,202.55 -195.51,368.29 -434.47,368.29l-609.33 0c-238.96,0 -434.48,-165.74 -434.48,-368.29l0 0c0,-27.13 3.53,-53.6 10.19,-79.09 204.01,60.29 456.1,95.95 728.96,95.95 272.86,0 524.94,-35.65 728.95,-95.94z"/>
   <path class="fil2" d="M4178.07 100.34c0,-55.41 44.94,-100.34 100.34,-100.34 55.41,0 100.35,44.94 100.35,100.34l0 736.57c0,55.41 -44.95,100.34 -100.35,100.34 -55.41,0 -100.34,-44.94 -100.34,-100.34l0 -736.57z"/>
   <path class="fil2" d="M3819.88 110.94c0,-55.41 44.95,-100.34 100.35,-100.34 55.41,0 100.34,44.94 100.34,100.34l0 714.99c0,55.41 -44.94,100.34 -100.34,100.34 -55.41,0 -100.35,-44.94 -100.35,-100.34l0 -714.99z"/>
   <path class="fil2" d="M4536.27 110.94c0,-55.41 44.94,-100.34 100.34,-100.34 55.41,0 100.34,44.94 100.34,100.34l0 714.99c0,55.41 -44.94,100.34 -100.34,100.34 -55.41,0 -100.34,-44.94 -100.34,-100.34l0 -714.99z"/>
   <path class="fil8" style="mask:url(#id6)" d="M5781.14 2625.43c0,1074.86 -871.39,1946.25 -1946.25,1946.25 -379.65,0 -733.92,-108.71 -1033.36,-296.7 -88.39,-55.51 -172.02,-117.91 -250.1,-186.45 -46.55,-40.86 -91.13,-83.92 -133.59,-129 -54.69,-58.08 -105.86,-119.52 -153.15,-183.97 4.89,31.55 10.47,62.86 16.79,93.9 19.07,93.93 44.6,185.5 76.11,274.22 204.24,575.17 659.49,1031.46 1233.97,1237.11 71.05,25.42 143.88,47 218.3,64.52 150.47,35.4 307.34,54.14 468.58,54.14 162.64,0 320.83,-19.05 472.47,-55.05 73.06,-17.35 144.63,-38.62 214.42,-63.61 593.91,-212.58 1060.37,-693.06 1253.82,-1295.79 18.56,-57.85 34.61,-116.81 48.01,-176.77 32.14,-143.72 49.09,-293.16 49.09,-446.59 0,-588.02 -249.15,-1117.75 -647.52,-1489.71l6.96 19.85c3.31,9.67 6.58,19.41 9.76,29.17 11.47,35.11 21.96,70.69 31.46,106.66 26.22,99.43 44.79,201.99 55.01,307.01 6.1,62.78 9.23,126.41 9.23,190.79z"/>
   <path class="fil3" d="M2431.93 1448.27l90.67 -90.67c27.63,-27.63 27.63,-73.23 0,-100.86 -27.63,-27.61 -73.22,-27.59 -100.83,0.02l-174.11 174.1 165.65 165.65 83.43 -83.42 -64.81 -64.82z"/>
   <path class="fil3" d="M6309.09 1430.74l-165.65 165.65 83.56 83.56 64.81 -64.81 90.68 90.67c27.62,27.63 73.22,27.63 100.85,0 27.61,-27.63 27.59,-73.22 -0.02,-100.83l-174.23 -174.24z"/>
   <path class="fil3" d="M4160.42 823.96l0 343.76c18.32,6.63 36.86,10.12 55.46,10.52l3.55 0.08 3.55 -0.08c18.6,-0.4 37.13,-3.89 55.44,-10.52l0 -343.76 -118 0z"/>
   <path class="fil2" d="M3907.59 0l741.66 0c128.69,0 245.76,52.71 330.67,137.58l0.38 0c84.87,84.87 137.59,202.09 137.59,331.03 0,128.68 -52.72,245.77 -137.59,330.68l-0.38 0.38c-84.91,84.87 -201.96,137.58 -330.67,137.58l-741.66 0c-128.98,0 -246.19,-52.71 -331.06,-137.58 -84.89,-84.89 -137.6,-202.08 -137.6,-331.06 0,-128.59 52.77,-245.76 137.79,-330.84l-0.19 -0.19c84.87,-84.87 202.08,-137.58 331.06,-137.58zm741.66 200.69l-741.66 0c-73.61,0 -140.61,30.19 -189.19,78.77l-0.38 0c-48.35,48.35 -78.4,115.32 -78.4,189.16 0,73.59 30.18,140.59 78.78,189.19 48.58,48.58 115.57,78.76 189.19,78.76l741.66 0c73.72,0 140.79,-30.1 189.38,-78.57 48.46,-48.58 78.57,-115.63 78.57,-189.38 0,-73.58 -30.18,-140.58 -78.76,-189.16l0.19 -0.19c-48.59,-48.47 -115.63,-78.58 -189.38,-78.58z"/>
   <path class="fil1" d="M2457.58 1640.79l-166.88 166.89 205.03 205.03c52.73,-58.63 108.47,-114.3 166.94,-166.82l-205.09 -205.1z"/>
   <path class="fil2" d="M2490.61 1519.21c-39.17,-39.18 -39.17,-102.7 0,-141.86 39.18,-39.18 102.7,-39.18 141.87,0l267.65 267.64c39.17,39.18 39.17,102.7 0,141.87 -39.18,39.18 -102.7,39.18 -141.87,0l-267.65 -267.65z"/>
   <path class="fil2" d="M1937.74 1469.29l348.27 -348.27c51.29,-51.29 118.8,-76.97 186.17,-76.97 67.38,0 134.89,25.67 186.16,76.95 51.29,51.29 76.97,118.8 76.97,186.19 0,67.36 -25.67,134.87 -76.97,186.16l-348.25 348.25c-51.31,51.31 -118.78,76.95 -186.16,76.95 -67.39,0 -134.9,-25.67 -186.17,-76.95l-6.28 -6.9c-46.83,-50.18 -70.27,-114.73 -70.29,-179.27l-0.4 0c0,-67.37 25.66,-134.86 76.95,-186.15zm490.14 -206.39l-348.25 348.25c-12.1,12.1 -18.15,28.18 -18.15,44.3l-0.4 0c0,14.67 5.16,29.43 15.38,41.26l3.12 2.99c12.12,12.12 28.2,18.17 44.34,18.17 16.13,0 32.21,-6.05 44.29,-18.13l348.26 -348.26c12.08,-12.08 18.15,-28.18 18.15,-44.29 0,-16.14 -6.07,-32.24 -18.15,-44.32 -12.09,-12.08 -28.16,-18.13 -44.3,-18.13 -16.12,0 -32.22,6.07 -44.3,18.15z"/>
   <path class="fil2" d="M2194.09 1815.74c-39.18,-39.18 -39.18,-102.7 0,-141.87 39.17,-39.17 102.69,-39.17 141.86,0l272.1 272.08c39.18,39.18 39.18,102.7 0,141.87 -39.18,39.18 -102.7,39.18 -141.86,0l-272.1 -272.08z"/>
   <path class="fil1" d="M5926.65 1479.38l-203.76 203.78c58.59,52.39 114.48,107.95 167.36,166.43l203.31 -203.31 -166.91 -166.9z"/>
   <path class="fil2" d="M5924.37 1377.31c39.18,-39.18 102.7,-39.18 141.87,0 39.18,39.18 39.18,102.7 0,141.86l-273.12 273.13c-39.18,39.18 -102.7,39.18 -141.87,0 -39.18,-39.18 -39.18,-102.7 0,-141.87l273.12 -273.12z"/>
   <path class="fil2" d="M6220.88 1673.83c39.18,-39.18 102.7,-39.18 141.87,0 39.18,39.17 39.18,102.69 0,141.86l-273.41 273.41c-39.18,39.18 -102.7,39.18 -141.87,0 -39.18,-39.18 -39.18,-102.7 0,-141.86l273.41 -273.41z"/>
   <path class="fil2" d="M6270.81 1120.96l348.27 348.28c51.29,51.28 76.97,118.79 76.97,186.16 0,67.39 -25.67,134.9 -76.95,186.16 -51.28,51.29 -118.79,76.97 -186.18,76.97 -67.37,0 -134.88,-25.67 -186.16,-76.97l-348.26 -348.25c-51.3,-51.3 -76.95,-118.78 -76.95,-186.16 0,-67.39 25.67,-134.9 76.95,-186.17l6.91 -6.27c50.17,-46.84 114.72,-70.28 179.27,-70.3l0 -0.4c67.36,0 134.86,25.66 186.14,76.95zm206.4 490.14l-348.26 -348.25c-12.1,-12.1 -28.18,-18.15 -44.29,-18.15l0 -0.4c-14.68,0 -29.44,5.16 -41.26,15.38l-2.99 3.12c-12.12,12.12 -18.17,28.2 -18.17,44.34 0,16.13 6.05,32.21 18.13,44.3l348.25 348.25c12.08,12.08 28.18,18.15 44.3,18.15 16.14,0 32.23,-6.07 44.32,-18.15 12.08,-12.08 18.13,-28.16 18.13,-44.3 0,-16.12 -6.07,-32.22 -18.15,-44.3z"/>
   <path class="fil3" style="mask:url(#id8)" d="M5899.25 3186.37c0,1035 -839.03,1874.03 -1874.03,1874.03 -395.23,0 -761.88,-122.36 -1064.17,-331.24 332.59,345.57 799.89,560.62 1317.39,560.62 1009.64,0 1828.12,-818.48 1828.12,-1828.12 0,-394.87 -125.21,-760.52 -338.09,-1059.39 1.23,10.77 2.37,21.56 3.43,32.37 2.84,29.32 5.04,58.8 6.6,88.47 78.02,206.19 120.74,429.73 120.74,663.26z"/>
   <path class="fil9" style="mask:url(#id10)" d="M5595.83 2194.16c-332.59,-345.58 -799.89,-560.62 -1317.39,-560.62 -1009.63,0 -1828.11,818.48 -1828.11,1828.11 0,394.88 125.2,760.52 338.08,1059.4 -1.23,-10.77 -2.37,-21.56 -3.42,-32.37 155.41,-1027.03 1063.52,-2219.05 2810.85,-2294.52z"/>
   <path class="fil3" style="mask:url(#id12)" d="M2657.63 3736.94c0,-1034.99 839.04,-1874.02 1874.03,-1874.02 395.24,0 761.89,122.35 1064.17,331.24 -332.59,-345.58 -799.89,-560.62 -1317.39,-560.62 -1009.63,0 -1828.11,818.48 -1828.11,1828.11 0,394.88 125.2,760.52 338.08,1059.4 -1.23,-10.77 -2.37,-21.56 -3.42,-32.37 -2.84,-29.32 -5.05,-58.8 -6.6,-88.47 -78.03,-206.19 -120.75,-429.74 -120.75,-663.27z"/>
   <circle class="fil10" cx="4278.44" cy="3461.66" r="230.43"/>
   <path class="fil2" d="M4278.44 3130.89c91.32,0 174.01,37.03 233.87,96.89 59.87,59.87 96.9,142.55 96.9,233.87 0,91.32 -37.03,174.01 -96.9,233.87 -59.86,59.87 -142.55,96.9 -233.87,96.9 -91.05,0 -173.64,-37.03 -233.51,-96.9l-0.38 0c-59.86,-59.86 -96.89,-142.55 -96.89,-233.87 0,-91.32 37.03,-174 96.89,-233.87l6.41 -5.88c59.34,-56.38 139.45,-91.01 227.49,-91.01zm92.01 238.76c-23.52,-23.52 -56.06,-38.08 -92.01,-38.08 -34.17,0 -65.19,13 -88.34,34.19l-3.67 3.89c-23.52,23.52 -38.08,56.05 -38.08,92 0,35.95 14.56,68.49 38.08,92.01l-0.19 0.19c23.5,23.38 56.11,37.88 92.21,37.88 35.95,0 68.49,-14.56 92.01,-38.07 23.51,-23.52 38.07,-56.06 38.07,-92.01 0,-35.95 -14.56,-68.48 -38.07,-92z"/>
   <path class="fil2" d="M4378.79 3231.23c0,55.41 -44.95,100.34 -100.35,100.34 -55.41,0 -100.34,-44.94 -100.34,-100.34l0 -822.86c0,-55.41 44.94,-100.35 100.34,-100.35 55.41,0 100.35,44.95 100.35,100.35l0 822.86z"/>
   <path class="fil11" d="M4186.44 3227.78c39.18,39.18 39.18,102.7 0,141.87 -39.18,39.18 -102.7,39.18 -141.87,0l-581.84 -581.84c-39.18,-39.18 -39.18,-102.7 0,-141.87 39.18,-39.17 102.7,-39.17 141.87,0l581.84 581.84z"/>
   <path class="fil12" d="M4048.02 3361.31c55.41,0 100.34,44.94 100.34,100.34 0,55.41 -44.94,100.35 -100.34,100.35l-822.86 0c-55.41,0 -100.35,-44.95 -100.35,-100.35 0,-55.41 44.95,-100.34 100.35,-100.34l822.86 0z"/>
   <path class="fil13" d="M4044.56 3553.66c39.18,-39.18 102.7,-39.18 141.87,0 39.18,39.18 39.18,102.7 0,141.86l-581.84 581.84c-39.18,39.18 -102.7,39.18 -141.87,0 -39.18,-39.18 -39.18,-102.7 0,-141.86l581.84 -581.84z"/>
   <path class="fil14" d="M4178.09 3692.08c0,-55.41 44.94,-100.35 100.34,-100.35 55.41,0 100.35,44.95 100.35,100.35l0 822.86c0,55.41 -44.95,100.34 -100.35,100.34 -55.41,0 -100.34,-44.94 -100.34,-100.34l0 -822.86z"/>
   <path class="fil2" d="M4527.8 3433.05c-47.82,27.47 -108.92,10.98 -136.39,-36.84 -27.48,-47.83 -10.98,-108.92 36.84,-136.4l516.03 -297.93c47.82,-27.47 108.92,-10.97 136.39,36.85 27.48,47.82 10.98,108.92 -36.84,136.39l-516.03 297.93z"/>
   <path class="fil2" d="M4378.79 2123.6c0,55.41 -44.95,100.34 -100.35,100.34 -55.41,0 -100.34,-44.94 -100.34,-100.34l0 -175.91c0,-55.41 44.94,-100.34 100.34,-100.34 55.41,0 100.35,44.94 100.35,100.34l0 175.91z"/>
   <path class="fil2" d="M5034.09 2352.65c-27.48,47.82 -88.57,64.31 -136.4,36.84 -47.82,-27.48 -64.32,-88.57 -36.84,-136.4l87.95 -152.36c27.48,-47.82 88.57,-64.32 136.4,-36.84 47.82,27.47 64.31,88.56 36.84,136.39l-87.95 152.37z"/>
   <path class="fil2" d="M5487.4 2879.24c-47.82,27.71 -109.09,11.38 -136.78,-36.44 -27.71,-47.82 -11.38,-109.09 36.44,-136.78l152.34 -87.97c47.83,-27.71 109.1,-11.38 136.79,36.44 27.71,47.82 11.38,109.09 -36.44,136.79l-152.35 87.96z"/>
   <path class="fil2" d="M3069.48 4044.07c47.82,-27.7 109.09,-11.38 136.79,36.44 27.7,47.83 11.37,109.1 -36.45,136.79l-152.34 87.97c-47.82,27.7 -109.09,11.38 -136.79,-36.44 -27.7,-47.83 -11.37,-109.1 36.45,-136.79l152.34 -87.97z"/>
   <path class="fil2" d="M2940.39 3361.31c55.41,0 100.34,44.94 100.34,100.34 0,55.41 -44.94,100.35 -100.34,100.35l-175.91 0c-55.41,0 -100.34,-44.95 -100.34,-100.35 0,-55.41 44.94,-100.34 100.34,-100.34l175.91 0z"/>
   <path class="fil2" d="M3169.82 2706.01c47.82,27.7 64.15,88.96 36.45,136.78 -27.71,47.82 -88.97,64.15 -136.79,36.44l-152.34 -87.96c-47.82,-27.71 -64.15,-88.97 -36.45,-136.79 27.71,-47.82 88.97,-64.15 136.79,-36.44l152.34 87.97z"/>
   <path class="fil2" d="M3696.03 2252.69c27.71,47.82 11.38,109.09 -36.44,136.79 -47.82,27.7 -109.09,11.38 -136.78,-36.45l-87.97 -152.34c-27.71,-47.82 -11.38,-109.09 36.44,-136.78 47.82,-27.71 109.09,-11.38 136.79,36.44l87.96 152.34z"/>
   <path class="fil2" d="M5616.5 3562.01c-55.41,0 -100.35,-44.95 -100.35,-100.35 0,-55.41 44.95,-100.34 100.35,-100.34l175.9 0c55.41,0 100.35,44.94 100.35,100.34 0,55.41 -44.95,100.35 -100.35,100.35l-175.9 0z"/>
   <path class="fil2" d="M5387.06 4217.3c-47.82,-27.7 -64.15,-88.96 -36.44,-136.79 27.7,-47.82 88.96,-64.14 136.78,-36.44l152.35 87.97c47.82,27.7 64.15,88.96 36.44,136.79 -27.7,47.82 -88.96,64.14 -136.79,36.44l-152.34 -87.97z"/>
   <path class="fil2" d="M4860.85 4670.62c-27.7,-47.83 -11.38,-109.1 36.44,-136.79 47.82,-27.71 109.09,-11.38 136.79,36.44l87.97 152.35c27.7,47.82 11.37,109.09 -36.45,136.78 -47.82,27.71 -109.09,11.38 -136.78,-36.44l-87.97 -152.34z"/>
   <path class="fil2" d="M4178.09 4799.71c0,-55.41 44.94,-100.34 100.34,-100.34 55.41,0 100.35,44.94 100.35,100.34l0 175.91c0,55.4 -44.95,100.34 -100.35,100.34 -55.41,0 -100.34,-44.95 -100.34,-100.34l0 -175.91z"/>
   <path class="fil2" d="M3522.8 4570.67c27.47,-47.82 88.56,-64.32 136.39,-36.84 47.82,27.48 64.32,88.57 36.84,136.4l-87.95 152.34c-27.47,47.82 -88.56,64.32 -136.39,36.84 -47.82,-27.48 -64.32,-88.56 -36.84,-136.4l87.95 -152.34z"/>
   <path class="fil2" d="M2150.81 5114.1c55.41,0 100.35,44.94 100.35,100.34 0,55.41 -44.95,100.35 -100.35,100.35l-429.27 0c-55.41,0 -100.35,-44.95 -100.35,-100.35 0,-55.41 44.95,-100.34 100.35,-100.34l429.27 0z"/>
   <path class="fil2" d="M1366.16 5114.1c55.41,0 100.35,44.94 100.35,100.34 0,55.41 -44.95,100.35 -100.35,100.35l-58.53 0c-55.41,0 -100.35,-44.95 -100.35,-100.35 0,-55.41 44.95,-100.34 100.35,-100.34l58.53 0z"/>
   <path class="fil2" d="M2138.94 4537.94c55.41,0 100.35,44.95 100.35,100.35 0,55.41 -44.95,100.34 -100.35,100.34l-753.73 0c-55.41,0 -100.34,-44.94 -100.34,-100.34 0,-55.41 44.94,-100.35 100.34,-100.35l753.73 0z"/>
   <path class="fil2" d="M1022.1 4537.94c55.41,0 100.34,44.95 100.34,100.35 0,55.41 -44.94,100.34 -100.34,100.34l-100.95 0c-55.41,0 -100.35,-44.94 -100.35,-100.34 0,-55.41 44.95,-100.35 100.35,-100.35l100.95 0z"/>
   <path class="fil2" d="M3728.37 6210.28c55.41,0 100.35,44.94 100.35,100.34 0,55.41 -44.95,100.34 -100.35,100.34l-766.13 0c-55.41,0 -100.34,-44.94 -100.34,-100.34 0,-55.41 44.94,-100.34 100.34,-100.34l766.13 0z"/>
   <path class="fil2" d="M2606.88 6210.28c55.41,0 100.35,44.94 100.35,100.34 0,55.41 -44.95,100.34 -100.35,100.34l-58.53 0c-55.41,0 -100.34,-44.94 -100.34,-100.34 0,-55.41 44.94,-100.34 100.34,-100.34l58.53 0z"/>
   <path class="fil2" d="M1046.22 3424.85c55.41,0 100.35,44.94 100.35,100.34 0,55.41 -44.95,100.35 -100.35,100.35l-381.81 0c-55.41,0 -100.35,-44.95 -100.35,-100.35 0,-55.41 44.95,-100.34 100.35,-100.34l381.81 0z"/>
   <path class="fil2" d="M191.65 3424.85c55.41,0 100.34,44.94 100.34,100.34 0,55.41 -44.94,100.35 -100.34,100.35l-91.3 0c-55.41,0 -100.35,-44.95 -100.35,-100.35 0,-55.41 44.95,-100.34 100.35,-100.34l91.3 0z"/>
   <path class="fil2" d="M2346.87 2263.4c55.41,0 100.34,44.95 100.34,100.35 0,55.41 -44.94,100.34 -100.34,100.34l-427.06 0c-55.41,0 -100.34,-44.94 -100.34,-100.34 0,-55.41 44.94,-100.35 100.34,-100.35l427.06 0z"/>
   <path class="fil2" d="M1592.02 2263.4c55.41,0 100.34,44.95 100.34,100.35 0,55.41 -44.94,100.34 -100.34,100.34l-81.96 0c-55.41,0 -100.34,-44.94 -100.34,-100.34 0,-55.41 44.94,-100.35 100.34,-100.35l81.96 0z"/>
   <path class="fil7" style="mask:url(#id14)" d="M3683.23 5809.75c-19.64,61.25 -30.26,126.51 -30.26,194.27 0,350.84 284.45,635.29 635.29,635.29 350.83,0 635.28,-284.45 635.28,-635.29 0,-67.26 -10.45,-132.07 -29.83,-192.92 -104.81,733.02 -1107.34,731.33 -1210.48,-1.35z"/>
   <path class="fil2" d="M1955.67 2976.16c-39.81,-23.08 -83.13,-41.24 -128.98,-53.53 -43.96,-11.78 -90.58,-18.09 -139.03,-18.09 -147.75,0 -281.5,59.88 -378.28,156.66 -96.79,96.78 -156.67,230.54 -156.67,378.29 0,147.72 59.88,281.48 156.67,378.26 96.8,96.78 230.57,156.67 378.28,156.67 48.47,0 95.09,-6.3 139.08,-18.1 45.83,-12.29 89.12,-30.43 128.93,-53.51 30.56,-17.71 64.22,-26.68 98.47,-26.72 33.77,-0.03 67.27,8.84 98.11,26.59 31.15,17.94 55.71,42.47 72.54,71.62 17.18,29.71 26.38,63.31 26.38,98.66l0 1305.84c0,30.03 12.06,57.15 31.47,76.57l0.38 0.38c19.42,19.42 46.53,31.48 76.57,31.48l1261.79 0c33.79,0 66.07,8.47 95.09,24.47 29.02,15.87 53.51,39.07 71.83,68.34 18.1,28.94 28.09,60.91 29.81,93.86 1.75,32.67 -4.86,65.32 -19.76,95.98l-0.15 0.32c-17.43,36.22 -31.04,74.24 -40.03,113.49 -8.72,38 -13.36,78.29 -13.36,120.32 0,147.74 59.89,281.5 156.67,378.28 96.8,96.78 230.55,156.67 378.28,156.67 147.73,0 281.49,-59.89 378.27,-156.67 96.78,-96.8 156.66,-230.57 156.66,-378.28 0,-42.04 -4.62,-82.36 -13.35,-120.36 -8.99,-39.23 -22.61,-77.25 -40.18,-113.37l-3.24 -7.4c-12.61,-28.62 -18.09,-58.8 -16.51,-88.97 1.73,-32.99 11.72,-64.94 29.8,-93.87 2.05,-3.28 4.25,-6.41 6.6,-9.37 17.49,-24.87 39.48,-44.69 64.76,-58.7 29.2,-16.18 61.64,-24.74 95.56,-24.74l1278.8 0c30.03,0 57.15,-12.06 76.57,-31.48l0.38 -0.38c19.42,-19.41 31.48,-46.53 31.48,-76.57l0 -1305.84c0,-35.34 9.19,-68.94 26.37,-98.66 16.84,-29.15 41.39,-53.68 72.55,-71.62 30.83,-17.75 64.33,-26.62 98.11,-26.59 34.25,0.04 67.9,9.01 98.47,26.72 39.8,23.08 83.09,41.22 128.92,53.51 43.99,11.8 90.62,18.1 139.09,18.1 147.7,0 281.48,-59.89 378.28,-156.67 96.78,-96.78 156.66,-230.54 156.66,-378.26 0,-147.75 -59.88,-281.51 -156.66,-378.29 -96.78,-96.78 -230.54,-156.66 -378.28,-156.66 -48.45,0 -95.08,6.31 -139.03,18.09 -45.85,12.29 -89.18,30.45 -128.98,53.53l-0.23 0.13c-15.24,8.85 -42.21,24.48 -77.04,35.19 -83.74,25.79 -178.68,20.63 -219.56,-112.71l-0.8 -2.72c-40.18,-145.27 -95.36,-284.18 -163.58,-415.13 -69.42,-133.24 -152.17,-257.48 -246.2,-371.12 -43.4,-52.45 -88.36,-101.92 -134.61,-148.13 -46.62,-46.6 -96.27,-91.66 -148.66,-134.97 -162.71,-134.52 -344.73,-244.49 -540.1,-325.42 -192.39,-79.69 -398.05,-131.72 -611.41,-151.85l-2.6 -0.28c-30.22,-2.79 -61.91,-5.01 -94.92,-6.59 -34.08,-1.65 -66.69,-2.52 -97.69,-2.58l-10.05 0c-30.98,0.06 -63.67,0.95 -97.77,2.58 -33.57,1.62 -66.11,3.93 -97.49,6.89 -213.31,20.1 -419.02,72.15 -611.38,151.85 -195.37,80.91 -377.39,190.9 -540.13,325.42 -52.39,43.31 -102.07,88.39 -148.71,135.03 -46.25,46.2 -91.19,95.64 -134.56,148.07 -92.87,112.27 -174.61,234.46 -243.17,365.03 -67.13,127.88 -121.96,264.2 -162.62,407.51l-2.1 6.62c-4.06,11.82 -9.41,23.18 -15.68,33.96 -30.11,51.92 -73.97,75.68 -120.42,83.01 -38.05,6.02 -74.65,-0.74 -103.59,-11.07 -14.84,-5.29 -28.9,-12.2 -40.15,-18.72zm-77.26 -247.13c61.5,16.48 119.98,40.88 174.26,71.98 43.65,-147.03 101,-287.28 170.4,-419.45 75.32,-143.45 164.66,-277.18 265.88,-399.51 45.92,-55.52 95.34,-109.69 147.86,-162.18 52.5,-52.48 106.62,-101.73 162.07,-147.57 177.35,-146.62 376.83,-266.93 591.85,-355.99 210.17,-87.07 435.12,-143.93 668.61,-165.95 36.33,-3.43 72,-6.01 106.89,-7.68 33.9,-1.62 69.74,-2.51 107.41,-2.59l9.56 0c37.6,0.08 73.45,0.95 107.34,2.59 33.57,1.61 68.34,4.11 104.16,7.43l2.77 0.23c233.53,22.04 458.45,78.88 668.63,165.95 215.06,89.08 414.5,209.4 591.83,355.99 55.42,45.8 109.52,95.05 162.01,147.52 52.54,52.5 101.96,106.67 147.91,162.24 103.2,124.69 193.83,260.74 269.72,406.38 68.96,132.39 125.98,273.53 169.34,422.17l13.58 -7.67c55.24,-32.01 114.85,-57.07 177.59,-73.89 61.18,-16.4 125.19,-25.18 190.76,-25.18 203.11,0 387.05,82.37 520.16,215.49 133.11,133.11 215.48,317.04 215.48,520.16 0,203.08 -82.37,387.03 -215.48,520.14 -133.15,133.11 -317.07,215.48 -520.16,215.48 -65.58,0 -129.59,-8.77 -190.81,-25.18 -60.65,-16.25 -118.36,-40.17 -172.01,-70.69l0 1299.56c0,84.63 -34.61,161.73 -90.46,217.83l-0.59 0.61c-56.13,55.98 -133.32,90.67 -218.06,90.67l-1272.86 0c22.55,47.35 40.29,97.96 52.46,151.07 12.33,53.7 18.85,108.98 18.85,165.03 0,203.1 -82.38,387.01 -215.49,520.16 -133.11,133.11 -317.06,215.48 -520.14,215.48 -203.08,0 -387.01,-82.37 -520.16,-215.48 -133.11,-133.11 -215.48,-317.05 -215.48,-520.16 0,-56.04 6.54,-111.33 18.84,-164.99 12.16,-53.11 29.92,-103.74 52.47,-151.11l-1255.86 0c-84.62,0 -161.72,-34.61 -217.83,-90.46l-0.6 -0.59c-55.98,-56.13 -90.68,-133.32 -90.68,-218.06l0 -1299.56c-53.64,30.51 -111.36,54.44 -172,70.69 -61.23,16.41 -125.25,25.18 -190.81,25.18 -203.1,0 -387.01,-82.37 -520.16,-215.48 -133.11,-133.11 -215.49,-317.06 -215.49,-520.14 0,-203.12 82.38,-387.05 215.49,-520.16 133.11,-133.12 317.04,-215.49 520.16,-215.49 65.57,0 129.59,8.78 190.75,25.18zm471.56 732.62c0,-532.49 215.87,-1014.62 564.85,-1363.61 348.99,-348.99 831.13,-564.85 1363.61,-564.85 532.49,0 1014.62,215.87 1363.62,564.85 348.99,348.99 564.84,831.13 564.84,1363.61 0,532.49 -215.86,1014.62 -564.84,1363.62 -349,348.99 -831.14,564.84 -1363.62,564.84 -532.49,0 -1014.62,-215.86 -1363.61,-564.84 -348.99,-349 -564.85,-831.14 -564.85,-1363.62zm706.73 -1221.74c-312.65,312.64 -506.03,744.61 -506.03,1221.74 0,477.14 193.39,909.1 506.03,1221.75 312.64,312.65 744.61,506.03 1221.74,506.03 477.14,0 909.1,-193.39 1221.75,-506.03 312.64,-312.65 506.03,-744.61 506.03,-1221.75 0,-477.13 -193.4,-909.1 -506.03,-1221.74 -312.65,-312.65 -744.61,-506.03 -1221.75,-506.03 -477.13,0 -909.1,193.39 -1221.74,506.03z"/>
   <path class="fil15" style="mask:url(#id16)" d="M2471.15 5362.78l1140.5 124.49 -1253.4 0c-58.47,0 -106.18,-47.71 -106.18,-106.19l0 -1323.57 124.98 1210.62c5.2,50.34 43.8,89.15 94.1,94.65z"/>
   <path class="fil7" style="mask:url(#id18)" d="M6104.35 5362.78l-1140.5 124.49 1253.4 0c58.47,0 106.18,-47.71 106.18,-106.19l0 -1323.57 -124.98 1210.62c-5.2,50.34 -43.8,89.15 -94.1,94.65z"/>
  </g>
 </g>
</svg>
